<mxfile host="app.diagrams.net" agent="Mozilla/5.0 (Windows NT 10.0; Win64; x64) AppleWebKit/537.36 (KHTML, like Gecko) Chrome/131.0.0.0 Safari/537.36" version="25.0.3">
  <diagram id="R2lEEEUBdFMjLlhIrx00" name="Page-1">
    <mxGraphModel dx="1434" dy="746" grid="1" gridSize="10" guides="1" tooltips="1" connect="1" arrows="1" fold="1" page="1" pageScale="1" pageWidth="850" pageHeight="1100" math="0" shadow="0" extFonts="Permanent Marker^https://fonts.googleapis.com/css?family=Permanent+Marker">
      <root>
        <mxCell id="0" />
        <mxCell id="1" parent="0" />
        <mxCell id="WpbRzZJps3bdmA5he7CB-23" value="" style="edgeStyle=orthogonalEdgeStyle;rounded=0;orthogonalLoop=1;jettySize=auto;html=1;" edge="1" parent="1" source="WpbRzZJps3bdmA5he7CB-4" target="WpbRzZJps3bdmA5he7CB-21">
          <mxGeometry relative="1" as="geometry" />
        </mxCell>
        <mxCell id="WpbRzZJps3bdmA5he7CB-32" value="" style="edgeStyle=orthogonalEdgeStyle;rounded=0;orthogonalLoop=1;jettySize=auto;html=1;" edge="1" parent="1" source="WpbRzZJps3bdmA5he7CB-4" target="WpbRzZJps3bdmA5he7CB-31">
          <mxGeometry relative="1" as="geometry" />
        </mxCell>
        <mxCell id="WpbRzZJps3bdmA5he7CB-34" value="" style="edgeStyle=orthogonalEdgeStyle;rounded=0;orthogonalLoop=1;jettySize=auto;html=1;" edge="1" parent="1" source="WpbRzZJps3bdmA5he7CB-4" target="WpbRzZJps3bdmA5he7CB-33">
          <mxGeometry relative="1" as="geometry" />
        </mxCell>
        <mxCell id="WpbRzZJps3bdmA5he7CB-4" value="Product" style="whiteSpace=wrap;html=1;align=center;" vertex="1" parent="1">
          <mxGeometry x="260" y="400" width="100" height="40" as="geometry" />
        </mxCell>
        <mxCell id="WpbRzZJps3bdmA5he7CB-12" value="" style="edgeStyle=orthogonalEdgeStyle;rounded=0;orthogonalLoop=1;jettySize=auto;html=1;" edge="1" parent="1" source="WpbRzZJps3bdmA5he7CB-5" target="WpbRzZJps3bdmA5he7CB-6">
          <mxGeometry relative="1" as="geometry" />
        </mxCell>
        <mxCell id="WpbRzZJps3bdmA5he7CB-13" value="" style="edgeStyle=orthogonalEdgeStyle;rounded=0;orthogonalLoop=1;jettySize=auto;html=1;" edge="1" parent="1" source="WpbRzZJps3bdmA5he7CB-5" target="WpbRzZJps3bdmA5he7CB-10">
          <mxGeometry relative="1" as="geometry" />
        </mxCell>
        <mxCell id="WpbRzZJps3bdmA5he7CB-20" value="" style="edgeStyle=orthogonalEdgeStyle;rounded=0;orthogonalLoop=1;jettySize=auto;html=1;" edge="1" parent="1" source="WpbRzZJps3bdmA5he7CB-5" target="WpbRzZJps3bdmA5he7CB-11">
          <mxGeometry relative="1" as="geometry" />
        </mxCell>
        <mxCell id="WpbRzZJps3bdmA5he7CB-5" value="Client" style="whiteSpace=wrap;html=1;align=center;" vertex="1" parent="1">
          <mxGeometry x="510" y="230" width="100" height="40" as="geometry" />
        </mxCell>
        <mxCell id="WpbRzZJps3bdmA5he7CB-6" value="Username" style="ellipse;whiteSpace=wrap;html=1;align=center;" vertex="1" parent="1">
          <mxGeometry x="370" y="170" width="100" height="40" as="geometry" />
        </mxCell>
        <mxCell id="WpbRzZJps3bdmA5he7CB-10" value="Password" style="ellipse;whiteSpace=wrap;html=1;align=center;" vertex="1" parent="1">
          <mxGeometry x="510" y="160" width="100" height="40" as="geometry" />
        </mxCell>
        <mxCell id="WpbRzZJps3bdmA5he7CB-11" value="Id" style="ellipse;whiteSpace=wrap;html=1;align=center;" vertex="1" parent="1">
          <mxGeometry x="660" y="170" width="100" height="40" as="geometry" />
        </mxCell>
        <mxCell id="WpbRzZJps3bdmA5he7CB-21" value="Id" style="ellipse;whiteSpace=wrap;html=1;align=center;" vertex="1" parent="1">
          <mxGeometry x="260" y="330" width="100" height="40" as="geometry" />
        </mxCell>
        <mxCell id="WpbRzZJps3bdmA5he7CB-28" value="" style="edgeStyle=orthogonalEdgeStyle;rounded=0;orthogonalLoop=1;jettySize=auto;html=1;" edge="1" parent="1" source="WpbRzZJps3bdmA5he7CB-25" target="WpbRzZJps3bdmA5he7CB-27">
          <mxGeometry relative="1" as="geometry" />
        </mxCell>
        <mxCell id="WpbRzZJps3bdmA5he7CB-30" value="" style="edgeStyle=orthogonalEdgeStyle;rounded=0;orthogonalLoop=1;jettySize=auto;html=1;" edge="1" parent="1" source="WpbRzZJps3bdmA5he7CB-25" target="WpbRzZJps3bdmA5he7CB-29">
          <mxGeometry relative="1" as="geometry" />
        </mxCell>
        <mxCell id="WpbRzZJps3bdmA5he7CB-25" value="Product type" style="whiteSpace=wrap;html=1;align=center;" vertex="1" parent="1">
          <mxGeometry x="470" y="520" width="100" height="40" as="geometry" />
        </mxCell>
        <mxCell id="WpbRzZJps3bdmA5he7CB-26" value="Order" style="rounded=1;arcSize=10;whiteSpace=wrap;html=1;align=center;" vertex="1" parent="1">
          <mxGeometry x="530" y="398" width="100" height="40" as="geometry" />
        </mxCell>
        <mxCell id="WpbRzZJps3bdmA5he7CB-27" value="Id" style="ellipse;whiteSpace=wrap;html=1;align=center;" vertex="1" parent="1">
          <mxGeometry x="470" y="570" width="100" height="40" as="geometry" />
        </mxCell>
        <mxCell id="WpbRzZJps3bdmA5he7CB-29" value="Name" style="ellipse;whiteSpace=wrap;html=1;align=center;" vertex="1" parent="1">
          <mxGeometry x="610" y="510" width="100" height="40" as="geometry" />
        </mxCell>
        <mxCell id="WpbRzZJps3bdmA5he7CB-31" value="Price" style="ellipse;whiteSpace=wrap;html=1;align=center;" vertex="1" parent="1">
          <mxGeometry x="120" y="400" width="100" height="40" as="geometry" />
        </mxCell>
        <mxCell id="WpbRzZJps3bdmA5he7CB-33" value="Name" style="ellipse;whiteSpace=wrap;html=1;align=center;" vertex="1" parent="1">
          <mxGeometry x="260" y="460" width="100" height="40" as="geometry" />
        </mxCell>
        <mxCell id="WpbRzZJps3bdmA5he7CB-35" value="" style="endArrow=none;html=1;rounded=0;exitX=1;exitY=0.5;exitDx=0;exitDy=0;entryX=0;entryY=0.5;entryDx=0;entryDy=0;" edge="1" parent="1" source="WpbRzZJps3bdmA5he7CB-36" target="WpbRzZJps3bdmA5he7CB-25">
          <mxGeometry width="50" height="50" relative="1" as="geometry">
            <mxPoint x="400" y="410" as="sourcePoint" />
            <mxPoint x="450" y="360" as="targetPoint" />
          </mxGeometry>
        </mxCell>
        <mxCell id="WpbRzZJps3bdmA5he7CB-37" value="" style="endArrow=none;html=1;rounded=0;exitX=1;exitY=0.5;exitDx=0;exitDy=0;entryX=0;entryY=0.5;entryDx=0;entryDy=0;" edge="1" parent="1" source="WpbRzZJps3bdmA5he7CB-4" target="WpbRzZJps3bdmA5he7CB-36">
          <mxGeometry width="50" height="50" relative="1" as="geometry">
            <mxPoint x="360" y="420" as="sourcePoint" />
            <mxPoint x="470" y="530" as="targetPoint" />
          </mxGeometry>
        </mxCell>
        <mxCell id="WpbRzZJps3bdmA5he7CB-36" value="Has" style="shape=rhombus;perimeter=rhombusPerimeter;whiteSpace=wrap;html=1;align=center;" vertex="1" parent="1">
          <mxGeometry x="395" y="450" width="60" height="50" as="geometry" />
        </mxCell>
        <mxCell id="WpbRzZJps3bdmA5he7CB-38" value="n&amp;nbsp;" style="text;html=1;align=center;verticalAlign=middle;resizable=0;points=[];autosize=1;strokeColor=none;fillColor=none;" vertex="1" parent="1">
          <mxGeometry x="375" y="438" width="30" height="30" as="geometry" />
        </mxCell>
        <mxCell id="WpbRzZJps3bdmA5he7CB-39" value="1" style="text;html=1;align=center;verticalAlign=middle;resizable=0;points=[];autosize=1;strokeColor=none;fillColor=none;" vertex="1" parent="1">
          <mxGeometry x="435" y="478" width="30" height="30" as="geometry" />
        </mxCell>
        <mxCell id="WpbRzZJps3bdmA5he7CB-40" value="" style="endArrow=none;html=1;rounded=0;entryX=0;entryY=0.5;entryDx=0;entryDy=0;" edge="1" parent="1" source="WpbRzZJps3bdmA5he7CB-41" target="WpbRzZJps3bdmA5he7CB-26">
          <mxGeometry width="50" height="50" relative="1" as="geometry">
            <mxPoint x="400" y="410" as="sourcePoint" />
            <mxPoint x="450" y="360" as="targetPoint" />
          </mxGeometry>
        </mxCell>
        <mxCell id="WpbRzZJps3bdmA5he7CB-42" value="" style="endArrow=none;html=1;rounded=0;entryX=0;entryY=0.5;entryDx=0;entryDy=0;" edge="1" parent="1" source="WpbRzZJps3bdmA5he7CB-4" target="WpbRzZJps3bdmA5he7CB-41">
          <mxGeometry width="50" height="50" relative="1" as="geometry">
            <mxPoint x="360" y="420" as="sourcePoint" />
            <mxPoint x="530" y="418" as="targetPoint" />
          </mxGeometry>
        </mxCell>
        <mxCell id="WpbRzZJps3bdmA5he7CB-43" value="n" style="edgeLabel;html=1;align=center;verticalAlign=middle;resizable=0;points=[];" vertex="1" connectable="0" parent="WpbRzZJps3bdmA5he7CB-42">
          <mxGeometry x="-0.3203" relative="1" as="geometry">
            <mxPoint x="13" y="-1" as="offset" />
          </mxGeometry>
        </mxCell>
        <mxCell id="WpbRzZJps3bdmA5he7CB-53" style="edgeStyle=orthogonalEdgeStyle;rounded=0;orthogonalLoop=1;jettySize=auto;html=1;" edge="1" parent="1" source="WpbRzZJps3bdmA5he7CB-41" target="WpbRzZJps3bdmA5he7CB-52">
          <mxGeometry relative="1" as="geometry" />
        </mxCell>
        <mxCell id="WpbRzZJps3bdmA5he7CB-41" value="Has" style="shape=rhombus;perimeter=rhombusPerimeter;whiteSpace=wrap;html=1;align=center;" vertex="1" parent="1">
          <mxGeometry x="410" y="393" width="70" height="50" as="geometry" />
        </mxCell>
        <mxCell id="WpbRzZJps3bdmA5he7CB-44" value="m" style="text;html=1;align=center;verticalAlign=middle;resizable=0;points=[];autosize=1;strokeColor=none;fillColor=none;" vertex="1" parent="1">
          <mxGeometry x="480" y="403" width="30" height="30" as="geometry" />
        </mxCell>
        <mxCell id="WpbRzZJps3bdmA5he7CB-46" value="" style="endArrow=none;html=1;rounded=0;entryX=0.5;entryY=1;entryDx=0;entryDy=0;" edge="1" parent="1" source="WpbRzZJps3bdmA5he7CB-47" target="WpbRzZJps3bdmA5he7CB-5">
          <mxGeometry width="50" height="50" relative="1" as="geometry">
            <mxPoint x="580" y="390" as="sourcePoint" />
            <mxPoint x="450" y="360" as="targetPoint" />
            <Array as="points" />
          </mxGeometry>
        </mxCell>
        <mxCell id="WpbRzZJps3bdmA5he7CB-49" value="1" style="edgeLabel;html=1;align=center;verticalAlign=middle;resizable=0;points=[];" vertex="1" connectable="0" parent="WpbRzZJps3bdmA5he7CB-46">
          <mxGeometry x="0.1435" y="-1" relative="1" as="geometry">
            <mxPoint as="offset" />
          </mxGeometry>
        </mxCell>
        <mxCell id="WpbRzZJps3bdmA5he7CB-48" value="" style="endArrow=none;html=1;rounded=0;entryX=0.5;entryY=1;entryDx=0;entryDy=0;" edge="1" parent="1" target="WpbRzZJps3bdmA5he7CB-47">
          <mxGeometry width="50" height="50" relative="1" as="geometry">
            <mxPoint x="580" y="400" as="sourcePoint" />
            <mxPoint x="560" y="270" as="targetPoint" />
            <Array as="points">
              <mxPoint x="580" y="340" />
            </Array>
          </mxGeometry>
        </mxCell>
        <mxCell id="WpbRzZJps3bdmA5he7CB-51" value="n" style="edgeLabel;html=1;align=center;verticalAlign=middle;resizable=0;points=[];" vertex="1" connectable="0" parent="WpbRzZJps3bdmA5he7CB-48">
          <mxGeometry x="0.08" y="1" relative="1" as="geometry">
            <mxPoint as="offset" />
          </mxGeometry>
        </mxCell>
        <mxCell id="WpbRzZJps3bdmA5he7CB-47" value="has" style="shape=rhombus;perimeter=rhombusPerimeter;whiteSpace=wrap;html=1;align=center;" vertex="1" parent="1">
          <mxGeometry x="550" y="290" width="60" height="50" as="geometry" />
        </mxCell>
        <mxCell id="WpbRzZJps3bdmA5he7CB-52" value="Quantity" style="ellipse;whiteSpace=wrap;html=1;align=center;" vertex="1" parent="1">
          <mxGeometry x="390" y="330" width="100" height="40" as="geometry" />
        </mxCell>
      </root>
    </mxGraphModel>
  </diagram>
</mxfile>
